<svg width="16" height="16" viewBox="0 0 16 16" fill="none" xmlns="http://www.w3.org/2000/svg">
<g id="verified">
<path id="Path" d="M15.9753 6.6422C15.8821 6.12022 15.5417 5.70301 15.0943 5.48682C15.3032 5.03394 15.2955 4.49151 15.0245 4.0276C14.7564 3.56857 14.2922 3.29163 13.7969 3.23978C13.8366 2.74355 13.6416 2.23646 13.2265 1.89214C12.8158 1.55146 12.2837 1.44816 11.8004 1.56688C11.666 1.0872 11.3073 0.67659 10.7981 0.493386C10.2943 0.312096 9.75859 0.394932 9.34545 0.669928C9.05322 0.264574 8.57414 0 8.03226 0C7.49608 0 7.02136 0.258964 6.72828 0.657052C6.3134 0.37498 5.77168 0.288351 5.26249 0.471554C4.75865 0.652845 4.40216 1.0567 4.26446 1.52988C3.777 1.4051 3.23799 1.50684 2.82288 1.85119C2.41215 2.19187 2.21687 2.69192 2.2512 3.18311C1.74998 3.23066 1.27867 3.50849 1.00772 3.97243C0.739629 4.43146 0.72915 4.96736 0.931336 5.41731C0.476796 5.63146 0.13004 6.05192 0.0359267 6.57944C-0.0571866 7.10142 0.118368 7.60857 0.464061 7.963C0.111017 8.31793 -0.0693738 8.83025 0.0247389 9.3578C0.117852 9.87978 0.458257 10.297 0.905737 10.5132C0.696812 10.9661 0.70455 11.5085 0.975475 11.9724C1.24356 12.4314 1.70781 12.7084 2.20307 12.7602C2.16341 13.2564 2.35838 13.7635 2.77348 14.1079C3.18421 14.4485 3.71626 14.5518 4.19962 14.4331C4.33403 14.9128 4.69266 15.3234 5.20188 15.5066C5.70571 15.6879 6.24141 15.6051 6.65455 15.3301C6.94682 15.7354 7.42589 16 7.96777 16C8.50395 16 8.97867 15.741 9.27175 15.3429C9.68663 15.625 10.2284 15.7116 10.7375 15.5284C11.2414 15.3472 11.5979 14.9433 11.7355 14.4702C12.223 14.5949 12.762 14.4932 13.1771 14.1488C13.5878 13.8082 13.7831 13.3081 13.7488 12.8169C14.25 12.7694 14.7213 12.4915 14.9923 12.0276C15.2604 11.5686 15.2709 11.0327 15.0687 10.5827C15.5232 10.3686 15.87 9.94814 15.9641 9.42059C16.0572 8.89861 15.8816 8.39146 15.5359 8.03704C15.889 7.68207 16.0694 7.16975 15.9753 6.6422Z" fill="#3FC4B6"/>
<path id="Path_2" d="M6.8241 12.1851L3.69788 8.95551L5.27285 7.32846L6.8241 8.93101L10.7512 4.87404L12.3262 6.50109L6.8241 12.1851Z" fill="white"/>
</g>
</svg>
